OxygenMono-Regular.ufo
<glyph name="exclam" format="1">
  <advance width="1229"/>
  <unicode hex="0021"/>
  <outline>
    <contour>
      <point x="576" y="489" type="line"/>
      <point x="487" y="1614" type="line"/>
      <point x="777" y="1614" type="line"/>
      <point x="688" y="489" type="line"/>
    </contour>
    <contour>
      <point x="777" y="0" type="line"/>
      <point x="487" y="0" type="line"/>
      <point x="487" y="276" type="line"/>
      <point x="777" y="276" type="line"/>
    </contour>
  </outline>
</glyph>
<glyph name="numbersign" format="1">
  <advance width="1229"/>
  <unicode hex="0023"/>
  <outline>
    <contour>
      <point x="1124" y="997" type="line"/>
      <point x="940" y="997" type="line"/>
      <point x="855" y="573" type="line"/>
      <point x="1042" y="573" type="line"/>
      <point x="1027" y="437" type="line"/>
      <point x="832" y="437" type="line"/>
      <point x="741" y="-25" type="line"/>
      <point x="579" y="-25" type="line"/>
      <point x="667" y="437" type="line"/>
      <point x="420" y="437" type="line"/>
      <point x="330" y="-25" type="line"/>
      <point x="167" y="-25" type="line"/>
      <point x="261" y="437" type="line"/>
      <point x="45" y="437" type="line"/>
      <point x="58" y="573" type="line"/>
      <point x="287" y="573" type="line"/>
      <point x="367" y="996" type="line"/>
      <point x="142" y="996" type="line"/>
      <point x="156" y="1130" type="line"/>
      <point x="392" y="1130" type="line"/>
      <point x="478" y="1568" type="line"/>
      <point x="641" y="1568" type="line"/>
      <point x="556" y="1130" type="line"/>
      <point x="806" y="1130" type="line"/>
      <point x="890" y="1568" type="line"/>
      <point x="1052" y="1568" type="line"/>
      <point x="966" y="1130" type="line"/>
      <point x="1141" y="1130" type="line"/>
    </contour>
    <contour>
      <point x="529" y="997" type="line"/>
      <point x="446" y="573" type="line"/>
      <point x="696" y="573" type="line"/>
      <point x="780" y="997" type="line"/>
    </contour>
  </outline>
</glyph>
<glyph name="dollar" format="1">
  <advance width="1229"/>
  <unicode hex="0024"/>
  <outline>
    <contour>
      <point x="258" y="287" type="line"/>
      <point x="331" y="227"/>
      <point x="427" y="184"/>
      <point x="540" y="166" type="curve"/>
      <point x="605" y="738" type="line"/>
      <point x="588" y="745"/>
      <point x="572" y="751"/>
      <point x="557" y="758" type="curve" smooth="yes"/>
      <point x="376" y="834"/>
      <point x="192" y="927"/>
      <point x="192" y="1184" type="curve" smooth="yes"/>
      <point x="192" y="1455"/>
      <point x="400" y="1599"/>
      <point x="671" y="1599" type="curve" smooth="yes"/>
      <point x="681" y="1599"/>
      <point x="691" y="1599"/>
      <point x="702" y="1598" type="curve"/>
      <point x="723" y="1784" type="line"/>
      <point x="850" y="1784" type="line"/>
      <point x="827" y="1586" type="line"/>
      <point x="929" y="1567"/>
      <point x="1013" y="1530"/>
      <point x="1081" y="1477" type="curve"/>
      <point x="1008" y="1317" type="line"/>
      <point x="953" y="1358"/>
      <point x="885" y="1388"/>
      <point x="807" y="1404" type="curve"/>
      <point x="748" y="891" type="line"/>
      <point x="778" y="879" type="line"/>
      <point x="965" y="796"/>
      <point x="1145" y="688"/>
      <point x="1145" y="417" type="curve" smooth="yes"/>
      <point x="1145" y="124"/>
      <point x="946" y="-25"/>
      <point x="654" y="-25" type="curve" smooth="yes"/>
      <point x="644" y="-25" type="line"/>
      <point x="626" y="-186" type="line"/>
      <point x="500" y="-186" type="line"/>
      <point x="519" y="-16" type="line"/>
      <point x="387" y="3"/>
      <point x="275" y="49"/>
      <point x="182" y="111" type="curve"/>
    </contour>
    <contour>
      <point x="922" y="427" type="curve" smooth="yes"/>
      <point x="922" y="565"/>
      <point x="831" y="637"/>
      <point x="725" y="688" type="curve"/>
      <point x="665" y="157" type="line"/>
      <point x="832" y="159"/>
      <point x="922" y="254"/>
    </contour>
    <contour>
      <point x="410" y="1180" type="curve"/>
      <point x="410" y="1050"/>
      <point x="516" y="986"/>
      <point x="627" y="939" type="curve"/>
      <point x="681" y="1417" type="line"/>
      <point x="674" y="1417"/>
      <point x="667" y="1418"/>
      <point x="660" y="1418" type="curve" smooth="yes"/>
      <point x="506" y="1418"/>
      <point x="413" y="1333"/>
    </contour>
  </outline>
</glyph>
<glyph name="percent" format="1">
  <advance width="1229"/>
  <unicode hex="0025"/>
  <outline>
    <contour>
      <point x="285" y="1571" type="curve" smooth="yes"/>
      <point x="486" y="1571"/>
      <point x="557" y="1365"/>
      <point x="557" y="1160" type="curve" smooth="yes"/>
      <point x="557" y="937"/>
      <point x="456" y="745"/>
      <point x="276" y="745" type="curve" smooth="yes"/>
      <point x="75" y="745"/>
      <point x="0" y="953"/>
      <point x="0" y="1155" type="curve" smooth="yes"/>
      <point x="0" y="1362"/>
      <point x="81" y="1571"/>
    </contour>
    <contour>
      <point x="971" y="-30" type="curve" smooth="yes"/>
      <point x="772" y="-30"/>
      <point x="696" y="178"/>
      <point x="696" y="381" type="curve" smooth="yes"/>
      <point x="696" y="607"/>
      <point x="799" y="798"/>
      <point x="980" y="798" type="curve" smooth="yes"/>
      <point x="1181" y="798"/>
      <point x="1253" y="592"/>
      <point x="1253" y="387" type="curve" smooth="yes"/>
      <point x="1253" y="162"/>
      <point x="1150" y="-30"/>
    </contour>
    <contour>
      <point x="1148" y="1559" type="line"/>
      <point x="248" y="-6" type="line"/>
      <point x="105" y="-6" type="line"/>
      <point x="1003" y="1559" type="line"/>
    </contour>
    <contour>
      <point x="976" y="93" type="curve" smooth="yes"/>
      <point x="1096" y="93"/>
      <point x="1120" y="263"/>
      <point x="1120" y="387" type="curve" smooth="yes"/>
      <point x="1120" y="512"/>
      <point x="1098" y="675"/>
      <point x="976" y="675" type="curve" smooth="yes"/>
      <point x="855" y="675"/>
      <point x="831" y="504"/>
      <point x="831" y="380" type="curve" smooth="yes"/>
      <point x="831" y="255"/>
      <point x="854" y="93"/>
    </contour>
    <contour>
      <point x="281" y="1449" type="curve" smooth="yes"/>
      <point x="160" y="1449"/>
      <point x="135" y="1280"/>
      <point x="135" y="1156" type="curve" smooth="yes"/>
      <point x="135" y="1030"/>
      <point x="158" y="867"/>
      <point x="280" y="867" type="curve" smooth="yes"/>
      <point x="398" y="867"/>
      <point x="425" y="1038"/>
      <point x="425" y="1160" type="curve" smooth="yes"/>
      <point x="425" y="1284"/>
      <point x="401" y="1449"/>
    </contour>
  </outline>
</glyph>
<glyph name="parenleft" format="1">
  <advance width="1229"/>
  <unicode hex="0028"/>
  <outline>
    <contour>
      <point x="295" y="772" type="curve" smooth="yes"/>
      <point x="295" y="1157"/>
      <point x="421" y="1462"/>
      <point x="597" y="1705" type="curve"/>
      <point x="811" y="1705" type="line"/>
      <point x="621" y="1405"/>
      <point x="527" y="1097"/>
      <point x="527" y="781" type="curve" smooth="yes"/>
      <point x="527" y="400"/>
      <point x="649" y="110"/>
      <point x="813" y="-152" type="curve"/>
      <point x="600" y="-152" type="line"/>
      <point x="420" y="88"/>
      <point x="295" y="388"/>
    </contour>
  </outline>
</glyph>
<glyph name="parenright" format="1">
  <advance width="1229"/>
  <unicode hex="0029"/>
  <outline>
    <contour>
      <point x="815" y="772" type="curve" smooth="yes"/>
      <point x="815" y="388"/>
      <point x="690" y="88"/>
      <point x="510" y="-152" type="curve"/>
      <point x="297" y="-152" type="line"/>
      <point x="461" y="110"/>
      <point x="583" y="400"/>
      <point x="583" y="781" type="curve" smooth="yes"/>
      <point x="583" y="1097"/>
      <point x="489" y="1405"/>
      <point x="299" y="1705" type="curve"/>
      <point x="513" y="1705" type="line"/>
      <point x="689" y="1462"/>
      <point x="815" y="1157"/>
    </contour>
  </outline>
</glyph>
<glyph name="asterisk" format="1">
  <advance width="1229"/>
  <unicode hex="002A"/>
  <outline>
    <contour>
      <point x="1066" y="374" type="line"/>
      <point x="881" y="270" type="line"/>
      <point x="620" y="673" type="line"/>
      <point x="364" y="270" type="line"/>
      <point x="177" y="374" type="line"/>
      <point x="504" y="752" type="line"/>
      <point x="49" y="899" type="line"/>
      <point x="143" y="1079" type="line"/>
      <point x="556" y="866" type="line"/>
      <point x="520" y="1330" type="line"/>
      <point x="722" y="1330" type="line"/>
      <point x="691" y="866" type="line"/>
      <point x="1100" y="1079" type="line"/>
      <point x="1196" y="899" type="line"/>
      <point x="739" y="752" type="line"/>
    </contour>
  </outline>
</glyph>
<glyph name="slash" format="1">
  <advance width="1229"/>
  <unicode hex="002F"/>
  <outline>
    <contour>
      <point x="914" y="1585" type="line"/>
      <point x="1111" y="1585" type="line"/>
      <point x="402" y="-224" type="line"/>
      <point x="211" y="-224" type="line"/>
    </contour>
  </outline>
</glyph>
<glyph name="one" format="1">
  <advance width="1229"/>
  <unicode hex="0031"/>
  <outline>
    <contour>
      <point x="225" y="1287" type="line"/>
      <point x="356" y="1341"/>
      <point x="492" y="1415"/>
      <point x="601" y="1492" type="curve"/>
      <point x="789" y="1492" type="line"/>
      <point x="789" y="0" type="line"/>
      <point x="602" y="0" type="line"/>
      <point x="602" y="1290" type="line"/>
      <point x="499" y="1232"/>
      <point x="340" y="1150"/>
      <point x="225" y="1106" type="curve"/>
    </contour>
  </outline>
</glyph>
<glyph name="two" format="1">
  <advance width="1229"/>
  <unicode hex="0032"/>
  <outline>
    <contour>
      <point x="186" y="1385" type="line"/>
      <point x="286" y="1464"/>
      <point x="428" y="1516"/>
      <point x="596" y="1516" type="curve" smooth="yes"/>
      <point x="890" y="1516"/>
      <point x="1078" y="1331"/>
      <point x="1078" y="1078" type="curve" smooth="yes"/>
      <point x="1078" y="847"/>
      <point x="912.74" y="708.33"/>
      <point x="798" y="582" type="curve" smooth="yes"/>
      <point x="402" y="146" type="line"/>
      <point x="1063" y="146" type="line"/>
      <point x="1063" y="0" type="line"/>
      <point x="196" y="0" type="line"/>
      <point x="196" y="191" type="line"/>
      <point x="656" y="733" type="line" smooth="yes"/>
      <point x="737" y="827"/>
      <point x="855" y="941"/>
      <point x="855" y="1083" type="curve" smooth="yes"/>
      <point x="855" y="1247"/>
      <point x="759" y="1341"/>
      <point x="598" y="1341" type="curve" smooth="yes"/>
      <point x="452" y="1341"/>
      <point x="338" y="1286"/>
      <point x="257" y="1219" type="curve"/>
    </contour>
  </outline>
</glyph>
<glyph name="five" format="1">
  <advance width="1229"/>
  <unicode hex="0035"/>
  <outline>
    <contour>
      <point x="242" y="275" type="line"/>
      <point x="371" y="171"/>
      <point x="491" y="130"/>
      <point x="615" y="130" type="curve" smooth="yes"/>
      <point x="808.608" y="130"/>
      <point x="909.497" y="316.568"/>
      <point x="909.497" y="494.112" type="curve" smooth="yes"/>
      <point x="909.497" y="655.274"/>
      <point x="826.368" y="809"/>
      <point x="654" y="809" type="curve" smooth="yes"/>
      <point x="533" y="809"/>
      <point x="474" y="699"/>
      <point x="474" y="699" type="curve"/>
      <point x="264" y="699" type="line"/>
      <point x="264" y="1492" type="line"/>
      <point x="987" y="1492" type="line"/>
      <point x="987" y="1346" type="line"/>
      <point x="452" y="1346" type="line"/>
      <point x="452" y="880" type="line"/>
      <point x="452" y="880"/>
      <point x="552" y="976"/>
      <point x="674" y="976" type="curve" smooth="yes"/>
      <point x="964.845" y="976"/>
      <point x="1109.55" y="738.179"/>
      <point x="1109.55" y="494.609" type="curve" smooth="yes"/>
      <point x="1109.55" y="238.971"/>
      <point x="950.15" y="-23"/>
      <point x="633" y="-23" type="curve" smooth="yes"/>
      <point x="423" y="-23"/>
      <point x="290" y="30"/>
      <point x="168" y="121" type="curve"/>
    </contour>
  </outline>
</glyph>
<glyph name="equal" format="1">
  <advance width="1229"/>
  <unicode hex="003D"/>
  <outline>
    <contour>
      <point x="1194" y="898" type="line"/>
      <point x="34" y="898" type="line"/>
      <point x="34" y="1048" type="line"/>
      <point x="1194" y="1048" type="line"/>
    </contour>
    <contour>
      <point x="1195" y="457" type="line"/>
      <point x="35" y="457" type="line"/>
      <point x="35" y="605" type="line"/>
      <point x="1195" y="605" type="line"/>
    </contour>
  </outline>
</glyph>
<glyph name="question" format="1">
  <advance width="1229"/>
  <unicode hex="003F"/>
  <outline>
    <contour>
      <point x="523" y="556" type="curve" smooth="yes"/>
      <point x="523" y="501"/>
      <point x="533" y="447"/>
      <point x="542" y="400" type="curve"/>
      <point x="360" y="400" type="line"/>
      <point x="353" y="455"/>
      <point x="349" y="512"/>
      <point x="349" y="569" type="curve"/>
      <point x="348" y="570" type="line"/>
      <point x="348" y="789"/>
      <point x="552" y="880"/>
      <point x="663" y="993" type="curve" smooth="yes"/>
      <point x="719" y="1050"/>
      <point x="773" y="1117"/>
      <point x="773" y="1222" type="curve" smooth="yes"/>
      <point x="773" y="1392"/>
      <point x="616" y="1451"/>
      <point x="447" y="1451" type="curve" smooth="yes"/>
      <point x="337" y="1451"/>
      <point x="244" y="1418"/>
      <point x="168" y="1377" type="curve"/>
      <point x="168" y="1535" type="line"/>
      <point x="246" y="1572"/>
      <point x="338" y="1606"/>
      <point x="447" y="1606" type="curve" smooth="yes"/>
      <point x="725" y="1606"/>
      <point x="959" y="1509"/>
      <point x="959" y="1231" type="curve" smooth="yes"/>
      <point x="959" y="1123"/>
      <point x="900" y="1043"/>
      <point x="846" y="979" type="curve" smooth="yes"/>
      <point x="739" y="852"/>
      <point x="523" y="704"/>
    </contour>
    <contour>
      <point x="328" y="-12" type="line"/>
      <point x="328" y="216" type="line"/>
      <point x="570" y="216" type="line"/>
      <point x="570" y="-12" type="line"/>
    </contour>
  </outline>
</glyph>
<glyph name="at" format="1">
  <advance width="1229"/>
  <unicode hex="0040"/>
  <outline>
    <contour>
      <point x="921" y="523" type="curve" smooth="yes"/>
      <point x="921" y="468"/>
      <point x="948.646" y="386"/>
      <point x="999" y="386" type="curve" smooth="yes"/>
      <point x="1106.2" y="386"/>
      <point x="1143" y="770.167"/>
      <point x="1143" y="904" type="curve" smooth="yes"/>
      <point x="1143" y="1200.99"/>
      <point x="995.248" y="1440"/>
      <point x="724" y="1440" type="curve" smooth="yes"/>
      <point x="357.692" y="1440"/>
      <point x="193" y="1065.84"/>
      <point x="193" y="641" type="curve" smooth="yes"/>
      <point x="193" y="282"/>
      <point x="366.144" y="1"/>
      <point x="692" y="1" type="curve" smooth="yes"/>
      <point x="867.693" y="1"/>
      <point x="1005.19" y="77"/>
      <point x="1115" y="173" type="curve"/>
      <point x="1163" y="117" type="line"/>
      <point x="1042.94" y="1.01316"/>
      <point x="887.317" y="-88"/>
      <point x="681" y="-88" type="curve" smooth="yes"/>
      <point x="253.235" y="-88"/>
      <point x="80" y="308.667"/>
      <point x="80" y="643" type="curve" smooth="yes"/>
      <point x="80" y="1153.96"/>
      <point x="356.698" y="1516"/>
      <point x="706" y="1516" type="curve" smooth="yes"/>
      <point x="1078.74" y="1516"/>
      <point x="1237" y="1234.22"/>
      <point x="1237" y="910" type="curve" smooth="yes"/>
      <point x="1237" y="665.885"/>
      <point x="1177.32" y="304"/>
      <point x="989" y="304" type="curve" smooth="yes"/>
      <point x="884.271" y="304"/>
      <point x="833.322" y="392.77"/>
      <point x="822" y="504" type="curve"/>
      <point x="773.598" y="342.298"/>
      <point x="668.786" y="296"/>
      <point x="602" y="296" type="curve" smooth="yes"/>
      <point x="432.246" y="296"/>
      <point x="377" y="471.606"/>
      <point x="377" y="650" type="curve" smooth="yes"/>
      <point x="377" y="885.819"/>
      <point x="494.698" y="1130"/>
      <point x="669" y="1130" type="curve" smooth="yes"/>
      <point x="760" y="1130"/>
      <point x="814" y="1042.1"/>
      <point x="842" y="970" type="curve"/>
      <point x="863" y="1097" type="line"/>
      <point x="977.998" y="1097" type="line" smooth="yes"/>
      <point x="976.88" y="1097"/>
      <point x="921" y="730.598"/>
    </contour>
    <contour>
      <point x="813" y="746" type="curve" smooth="yes"/>
      <point x="813" y="882.314"/>
      <point x="793.673" y="1029"/>
      <point x="679" y="1029" type="curve" smooth="yes"/>
      <point x="532.857" y="1029"/>
      <point x="493" y="751.306"/>
      <point x="493" y="620" type="curve" smooth="yes"/>
      <point x="493" y="511"/>
      <point x="515.041" y="394"/>
      <point x="628" y="394" type="curve" smooth="yes"/>
      <point x="757.743" y="394"/>
      <point x="813" y="625.909"/>
    </contour>
  </outline>
</glyph>
<glyph name="A" format="1">
  <advance width="1229"/>
  <unicode hex="0041"/>
  <outline>
    <contour>
      <point x="728" y="1491" type="line"/>
      <point x="1189" y="0" type="line"/>
      <point x="984" y="0" type="line"/>
      <point x="833" y="473" type="line"/>
      <point x="394" y="473" type="line"/>
      <point x="244" y="0" type="line"/>
      <point x="40" y="0" type="line"/>
      <point x="500" y="1491" type="line"/>
    </contour>
    <contour>
      <point x="433" y="636" type="line"/>
      <point x="795" y="636" type="line"/>
      <point x="617" y="1226" type="line"/>
    </contour>
    <contour>
      <point x="615" y="1491" type="move" name="top"/>
    </contour>
    <contour>
      <point x="1106" y="10" type="move" name="ogonek"/>
    </contour>
  </outline>
</glyph>
<glyph name="B" format="1">
  <advance width="1229"/>
  <unicode hex="0042"/>
  <outline>
    <contour>
      <point x="756" y="808" type="curve"/>
      <point x="937" y="771"/>
      <point x="1089" y="648"/>
      <point x="1089" y="458" type="curve" smooth="yes"/>
      <point x="1089" y="107"/>
      <point x="832" y="0"/>
      <point x="482" y="0" type="curve" smooth="yes"/>
      <point x="135" y="0" type="line"/>
      <point x="135" y="1491" type="line"/>
      <point x="383" y="1491" type="line" smooth="yes"/>
      <point x="694" y="1491"/>
      <point x="1013" y="1436"/>
      <point x="1013" y="1125" type="curve" smooth="yes"/>
      <point x="1013" y="957"/>
      <point x="907" y="849"/>
    </contour>
    <contour>
      <point x="893" y="440" type="curve" smooth="yes"/>
      <point x="893" y="659"/>
      <point x="732" y="708"/>
      <point x="502" y="708" type="curve" smooth="yes"/>
      <point x="322" y="708" type="line"/>
      <point x="322" y="146" type="line"/>
      <point x="451" y="146" type="line" smooth="yes"/>
      <point x="693" y="146"/>
      <point x="893" y="206"/>
    </contour>
    <contour>
      <point x="466" y="874" type="line" smooth="yes"/>
      <point x="653" y="874"/>
      <point x="817" y="917"/>
      <point x="817" y="1090" type="curve" smooth="yes"/>
      <point x="817" y="1330"/>
      <point x="586" y="1345"/>
      <point x="322" y="1345" type="curve"/>
      <point x="322" y="874" type="line"/>
    </contour>
  </outline>
</glyph>
<glyph name="C" format="1">
  <advance width="1229"/>
  <unicode hex="0043"/>
  <outline>
    <contour>
      <point x="1159" y="1389" type="curve"/>
      <point x="1089" y="1258" type="line"/>
      <point x="1008" y="1317"/>
      <point x="900" y="1363"/>
      <point x="759" y="1363" type="curve" smooth="yes"/>
      <point x="448" y="1363"/>
      <point x="325" y="1074"/>
      <point x="325" y="748" type="curve" smooth="yes"/>
      <point x="325" y="406"/>
      <point x="464" y="130"/>
      <point x="758" y="130" type="curve" smooth="yes"/>
      <point x="899" y="130"/>
      <point x="1014" y="185"/>
      <point x="1091" y="244" type="curve"/>
      <point x="1160" y="103" type="line"/>
      <point x="1059" y="20"/>
      <point x="915" y="-25"/>
      <point x="739" y="-25" type="curve" smooth="yes"/>
      <point x="342" y="-25"/>
      <point x="129" y="317"/>
      <point x="129" y="750" type="curve" smooth="yes"/>
      <point x="129" y="1203"/>
      <point x="370" y="1516"/>
      <point x="739" y="1516" type="curve" smooth="yes"/>
      <point x="915" y="1516"/>
      <point x="1058" y="1471"/>
    </contour>
    <contour>
      <point x="615" y="1491" type="move" name="top"/>
    </contour>
    <contour>
      <point x="615" y="0" type="move" name="bottom"/>
    </contour>
  </outline>
</glyph>
<glyph name="D" format="1">
  <advance width="1229"/>
  <unicode hex="0044"/>
  <outline>
    <contour>
      <point x="135" y="1491" type="line"/>
      <point x="342" y="1491" type="line" smooth="yes"/>
      <point x="823" y="1491"/>
      <point x="1083" y="1218"/>
      <point x="1083" y="746" type="curve" smooth="yes"/>
      <point x="1083" y="267"/>
      <point x="823" y="0"/>
      <point x="323" y="0" type="curve" smooth="yes"/>
      <point x="135" y="0" type="line"/>
    </contour>
    <contour>
      <point x="322" y="146" type="line"/>
      <point x="721" y="146"/>
      <point x="887" y="368"/>
      <point x="887" y="747" type="curve" smooth="yes"/>
      <point x="887" y="1125"/>
      <point x="721" y="1345"/>
      <point x="322" y="1345" type="curve"/>
    </contour>
    <contour>
      <point x="615" y="1491" type="move" name="top"/>
    </contour>
    <contour>
      <point x="615" y="746" type="move" name="center"/>
    </contour>
  </outline>
</glyph>
<glyph name="G" format="1">
  <advance width="1229"/>
  <unicode hex="0047"/>
  <outline>
    <contour>
      <point x="1056" y="1227" type="line"/>
      <point x="976" y="1300"/>
      <point x="859" y="1363"/>
      <point x="714" y="1363" type="curve" smooth="yes"/>
      <point x="417" y="1363"/>
      <point x="313" y="1056"/>
      <point x="313" y="748" type="curve" smooth="yes"/>
      <point x="313" y="422"/>
      <point x="437" y="130"/>
      <point x="714" y="130" type="curve" smooth="yes"/>
      <point x="832" y="130"/>
      <point x="926" y="172"/>
      <point x="1001" y="217" type="curve"/>
      <point x="1001" y="625" type="line"/>
      <point x="654" y="625" type="line"/>
      <point x="654" y="778" type="line"/>
      <point x="1174" y="778" type="line"/>
      <point x="1174" y="132" type="line"/>
      <point x="1049" y="52"/>
      <point x="896" y="-25"/>
      <point x="696" y="-25" type="curve" smooth="yes"/>
      <point x="305" y="-25"/>
      <point x="117" y="328"/>
      <point x="117" y="750" type="curve" smooth="yes"/>
      <point x="117" y="1192"/>
      <point x="330" y="1517"/>
      <point x="696" y="1517" type="curve" smooth="yes"/>
      <point x="876" y="1517"/>
      <point x="1022" y="1477"/>
      <point x="1126" y="1388" type="curve"/>
    </contour>
    <contour>
      <point x="615" y="1491" type="move" name="top"/>
    </contour>
    <contour>
      <point x="615" y="0" type="move" name="bottom"/>
    </contour>
  </outline>
</glyph>
<glyph name="L" format="1">
  <advance width="1229"/>
  <unicode hex="004C"/>
  <outline>
    <contour>
      <point x="420" y="146" type="line"/>
      <point x="1129" y="146" type="line"/>
      <point x="1129" y="0" type="line"/>
      <point x="233" y="0" type="line"/>
      <point x="233" y="1491" type="line"/>
      <point x="420" y="1491" type="line"/>
    </contour>
    <contour>
      <point x="615" y="1491" type="move" name="top"/>
    </contour>
    <contour>
      <point x="615" y="0" type="move" name="bottom"/>
    </contour>
  </outline>
</glyph>
<glyph name="M" format="1">
  <advance width="1229"/>
  <unicode hex="004D"/>
  <outline>
    <contour>
      <point x="335" y="1230" type="line"/>
      <point x="335" y="0" type="line"/>
      <point x="149" y="0" type="line"/>
      <point x="149" y="1491" type="line"/>
      <point x="404" y="1491" type="line"/>
      <point x="617" y="802" type="line"/>
      <point x="830" y="1491" type="line"/>
      <point x="1079" y="1491" type="line"/>
      <point x="1079" y="0" type="line"/>
      <point x="898" y="0" type="line"/>
      <point x="898" y="1230" type="line"/>
      <point x="721" y="646" type="line"/>
      <point x="512" y="646" type="line"/>
    </contour>
  </outline>
</glyph>
<glyph name="P" format="1">
  <advance width="1229"/>
  <unicode hex="0050"/>
  <outline>
    <contour>
      <point x="1191" y="1062" type="curve" smooth="yes"/>
      <point x="1191" y="635"/>
      <point x="826" y="607"/>
      <point x="363" y="607" type="curve"/>
      <point x="363" y="0" type="line"/>
      <point x="176" y="0" type="line"/>
      <point x="176" y="1491" type="line"/>
      <point x="588" y="1491" type="line" smooth="yes"/>
      <point x="913" y="1491"/>
      <point x="1191" y="1386"/>
    </contour>
    <contour>
      <point x="363" y="769" type="line"/>
      <point x="652" y="769" type="line" smooth="yes"/>
      <point x="835" y="769"/>
      <point x="995" y="861"/>
      <point x="995" y="1053" type="curve" smooth="yes"/>
      <point x="995" y="1259"/>
      <point x="840" y="1345"/>
      <point x="659" y="1345" type="curve" smooth="yes"/>
      <point x="363" y="1345" type="line"/>
    </contour>
  </outline>
</glyph>
<glyph name="R" format="1">
  <advance width="1229"/>
  <unicode hex="0052"/>
  <outline>
    <contour>
      <point x="1115" y="1093" type="curve" smooth="yes"/>
      <point x="1115" y="873"/>
      <point x="973" y="749"/>
      <point x="784" y="707" type="curve"/>
      <point x="969" y="534"/>
      <point x="1067" y="244"/>
      <point x="1178" y="0" type="curve"/>
      <point x="961" y="-1" type="line"/>
      <point x="855" y="229"/>
      <point x="773" y="480"/>
      <point x="611" y="653" type="curve"/>
      <point x="564" y="661"/>
      <point x="514" y="662"/>
      <point x="460" y="662" type="curve" smooth="yes"/>
      <point x="373" y="662" type="line"/>
      <point x="373" y="0" type="line"/>
      <point x="186" y="0" type="line"/>
      <point x="186" y="1491" type="line"/>
      <point x="476" y="1491" type="line" smooth="yes"/>
      <point x="821" y="1491"/>
      <point x="1115" y="1439"/>
    </contour>
    <contour>
      <point x="517" y="824" type="line" smooth="yes"/>
      <point x="728" y="824"/>
      <point x="907" y="881"/>
      <point x="907" y="1091" type="curve" smooth="yes"/>
      <point x="907" y="1279"/>
      <point x="750" y="1345"/>
      <point x="563" y="1345" type="curve" smooth="yes"/>
      <point x="373" y="1345" type="line"/>
      <point x="373" y="824" type="line"/>
    </contour>
    <contour>
      <point x="615" y="1491" type="move" name="top"/>
    </contour>
    <contour>
      <point x="615" y="0" type="move" name="bottom"/>
    </contour>
  </outline>
</glyph>
<glyph name="W" format="1">
  <advance width="1229"/>
  <unicode hex="0057"/>
  <outline>
    <contour>
      <point x="924" y="210" type="line"/>
      <point x="1021" y="1491" type="line"/>
      <point x="1216" y="1491" type="line"/>
      <point x="1058" y="1" type="line"/>
      <point x="809" y="1" type="line"/>
      <point x="628" y="703" type="line"/>
      <point x="425" y="1" type="line"/>
      <point x="179" y="1" type="line"/>
      <point x="13" y="1491" type="line"/>
      <point x="211" y="1491" type="line"/>
      <point x="330" y="213" type="line"/>
      <point x="522" y="880" type="line"/>
      <point x="735" y="880" type="line"/>
    </contour>
    <contour>
      <point x="615" y="1491" type="move" name="top"/>
    </contour>
  </outline>
</glyph>
<glyph name="X" format="1">
  <advance width="1229"/>
  <unicode hex="0058"/>
  <outline>
    <contour>
      <point x="92" y="1491" type="line"/>
      <point x="340" y="1491" type="line"/>
      <point x="629" y="892" type="line"/>
      <point x="941" y="1491" type="line"/>
      <point x="1169" y="1491" type="line"/>
      <point x="749" y="763" type="line"/>
      <point x="1177" y="0" type="line"/>
      <point x="933" y="0" type="line"/>
      <point x="611" y="632" type="line"/>
      <point x="286" y="0" type="line"/>
      <point x="52" y="0" type="line"/>
      <point x="499" y="762" type="line"/>
    </contour>
  </outline>
</glyph>
<glyph name="Y" format="1">
  <advance width="1229"/>
  <unicode hex="0059"/>
  <outline>
    <contour>
      <point x="715" y="0" type="line"/>
      <point x="503" y="0" type="line"/>
      <point x="503" y="593" type="line"/>
      <point x="49" y="1491" type="line"/>
      <point x="275" y="1491" type="line"/>
      <point x="610" y="788" type="line"/>
      <point x="949" y="1491" type="line"/>
      <point x="1180" y="1491" type="line"/>
      <point x="715" y="593" type="line"/>
    </contour>
    <contour>
      <point x="615" y="1491" type="move" name="top"/>
    </contour>
  </outline>
</glyph>
<glyph name="Z" format="1">
  <advance width="1229"/>
  <unicode hex="005A"/>
  <outline>
    <contour>
      <point x="343" y="146" type="line"/>
      <point x="995" y="146" type="line"/>
      <point x="995" y="0" type="line"/>
      <point x="102" y="0" type="line"/>
      <point x="102" y="143" type="line"/>
      <point x="749" y="1345" type="line"/>
      <point x="137" y="1345" type="line"/>
      <point x="137" y="1491" type="line"/>
      <point x="1004" y="1491" type="line"/>
      <point x="1004" y="1364" type="line"/>
    </contour>
    <contour>
      <point x="615" y="1491" type="move" name="top"/>
    </contour>
  </outline>
</glyph>
<glyph name="bracketleft" format="1">
  <advance width="1229"/>
  <unicode hex="005B"/>
  <outline>
    <contour>
      <point x="387" y="-131" type="curve"/>
      <point x="387" y="1725" type="line"/>
      <point x="387.667" y="1727.67"/>
      <point x="389.333" y="1729.33"/>
      <point x="392" y="1730" type="curve"/>
      <point x="906" y="1730" type="line"/>
      <point x="908.694" y="1729.33"/>
      <point x="910.361" y="1727.67"/>
      <point x="911" y="1725" type="curve"/>
      <point x="911" y="1593" type="line"/>
      <point x="910.333" y="1590.28"/>
      <point x="908.667" y="1588.62"/>
      <point x="906" y="1588" type="curve"/>
      <point x="576" y="1588" type="line"/>
      <point x="576" y="6" type="line"/>
      <point x="907" y="6" type="line"/>
      <point x="909.694" y="5.33333"/>
      <point x="911.361" y="3.66667"/>
      <point x="912" y="1" type="curve"/>
      <point x="912" y="-131" type="line"/>
      <point x="911.333" y="-133.667"/>
      <point x="909.667" y="-135.333"/>
      <point x="907" y="-136" type="curve"/>
      <point x="392" y="-136" type="line"/>
      <point x="389.321" y="-135.335"/>
      <point x="387.655" y="-133.669"/>
    </contour>
  </outline>
</glyph>
<glyph name="backslash" format="1">
  <advance width="1229"/>
  <unicode hex="005C"/>
  <outline>
    <contour>
      <point x="1100" y="-48" type="line"/>
      <point x="920" y="-48" type="line"/>
      <point x="211" y="1761" type="line"/>
      <point x="395" y="1761" type="line"/>
    </contour>
  </outline>
</glyph>
<glyph name="bracketright" format="1">
  <advance width="1229"/>
  <unicode hex="005D"/>
  <outline>
    <contour>
      <point x="697" y="-131" type="curve"/>
      <point x="697" y="1725" type="line"/>
      <point x="696.333" y="1727.67"/>
      <point x="694.667" y="1729.33"/>
      <point x="692" y="1730" type="curve"/>
      <point x="178" y="1730" type="line"/>
      <point x="175.306" y="1729.33"/>
      <point x="173.639" y="1727.67"/>
      <point x="173" y="1725" type="curve"/>
      <point x="173" y="1593" type="line"/>
      <point x="173.667" y="1590.28"/>
      <point x="175.333" y="1588.62"/>
      <point x="178" y="1588" type="curve"/>
      <point x="508" y="1588" type="line"/>
      <point x="508" y="6" type="line"/>
      <point x="177" y="6" type="line"/>
      <point x="174.306" y="5.33301"/>
      <point x="172.639" y="3.66699"/>
      <point x="172" y="1" type="curve"/>
      <point x="172" y="-131" type="line"/>
      <point x="172.667" y="-133.667"/>
      <point x="174.333" y="-135.333"/>
      <point x="177" y="-136" type="curve"/>
      <point x="692" y="-136" type="line"/>
      <point x="694.679" y="-135.335"/>
      <point x="696.345" y="-133.669"/>
    </contour>
  </outline>
</glyph>
<glyph name="a" format="1">
  <advance width="1229"/>
  <unicode hex="0061"/>
  <outline>
    <contour>
      <point x="541" y="-25" type="curve" smooth="yes"/>
      <point x="342" y="-25"/>
      <point x="182" y="81"/>
      <point x="182" y="280" type="curve" smooth="yes"/>
      <point x="182" y="552"/>
      <point x="424" y="589"/>
      <point x="713" y="623" type="curve" smooth="yes"/>
      <point x="859" y="640" type="line"/>
      <point x="859" y="756" type="line" smooth="yes"/>
      <point x="859" y="923"/>
      <point x="770" y="998"/>
      <point x="619" y="998" type="curve" smooth="yes"/>
      <point x="480" y="998"/>
      <point x="362" y="952"/>
      <point x="296" y="920" type="curve"/>
      <point x="250" y="1061" type="line"/>
      <point x="349" y="1094"/>
      <point x="477" y="1130"/>
      <point x="638" y="1130" type="curve" smooth="yes"/>
      <point x="866" y="1130"/>
      <point x="1041" y="1034"/>
      <point x="1041" y="791" type="curve" smooth="yes"/>
      <point x="1041" y="0" type="line"/>
      <point x="883" y="0" type="line"/>
      <point x="859" y="105" type="line"/>
      <point x="784" y="29"/>
      <point x="660" y="-25"/>
    </contour>
    <contour>
      <point x="547" y="108" type="curve" smooth="yes"/>
      <point x="669" y="108"/>
      <point x="778" y="162"/>
      <point x="859" y="245" type="curve"/>
      <point x="859" y="525" type="line"/>
      <point x="710" y="504" type="line" smooth="yes"/>
      <point x="553" y="482"/>
      <point x="360" y="460"/>
      <point x="360" y="289" type="curve" smooth="yes"/>
      <point x="360" y="177"/>
      <point x="431" y="108"/>
    </contour>
    <contour>
      <point x="598" y="1097" type="move" name="top"/>
    </contour>
    <contour>
      <point x="1089" y="10" type="move" name="ogonek"/>
    </contour>
  </outline>
</glyph>
<glyph name="b" format="1">
  <advance width="1229"/>
  <unicode hex="0062"/>
  <outline>
    <contour>
      <point x="359" y="946" type="line"/>
      <point x="430" y="1056"/>
      <point x="499" y="1130"/>
      <point x="675" y="1130" type="curve" smooth="yes"/>
      <point x="984" y="1130"/>
      <point x="1120" y="879"/>
      <point x="1120" y="568" type="curve" smooth="yes"/>
      <point x="1120" y="248"/>
      <point x="995" y="-25"/>
      <point x="676" y="-25" type="curve" smooth="yes"/>
      <point x="507" y="-25"/>
      <point x="436" y="49"/>
      <point x="359" y="150" type="curve"/>
      <point x="357" y="0" type="line"/>
      <point x="177" y="0" type="line"/>
      <point x="177" y="1565" type="line"/>
      <point x="359" y="1565" type="line"/>
    </contour>
    <contour>
      <point x="359" y="555" type="curve" smooth="yes"/>
      <point x="359" y="319"/>
      <point x="413" y="116"/>
      <point x="654" y="116" type="curve" smooth="yes"/>
      <point x="884" y="116"/>
      <point x="937" y="341"/>
      <point x="937" y="555" type="curve" smooth="yes"/>
      <point x="937" y="779"/>
      <point x="892" y="990"/>
      <point x="654" y="990" type="curve" smooth="yes"/>
      <point x="405" y="990"/>
      <point x="359" y="797"/>
    </contour>
  </outline>
</glyph>
<glyph name="c" format="1">
  <advance width="1229"/>
  <unicode hex="0063"/>
  <outline>
    <contour>
      <point x="385" y="557" type="curve" smooth="yes"/>
      <point x="385" y="291"/>
      <point x="520" y="115"/>
      <point x="742" y="115" type="curve" smooth="yes"/>
      <point x="852" y="115"/>
      <point x="926" y="143"/>
      <point x="994" y="200" type="curve"/>
      <point x="1055" y="75" type="line"/>
      <point x="971" y="4"/>
      <point x="873" y="-25"/>
      <point x="730" y="-25" type="curve" smooth="yes"/>
      <point x="417" y="-25"/>
      <point x="173" y="201"/>
      <point x="173" y="556" type="curve" smooth="yes"/>
      <point x="173" y="903"/>
      <point x="424" y="1130"/>
      <point x="730" y="1130" type="curve" smooth="yes"/>
      <point x="869" y="1130"/>
      <point x="969" y="1101"/>
      <point x="1055" y="1030" type="curve"/>
      <point x="994" y="883" type="line"/>
      <point x="924" y="954"/>
      <point x="850" y="990"/>
      <point x="740" y="990" type="curve" smooth="yes"/>
      <point x="520" y="990"/>
      <point x="385" y="818"/>
    </contour>
    <contour>
      <point x="650" y="1097" type="move" name="top"/>
    </contour>
    <contour>
      <point x="650" y="0" type="move" name="bottom"/>
    </contour>
  </outline>
</glyph>
<glyph name="d" format="1">
  <advance width="1229"/>
  <unicode hex="0064"/>
  <outline>
    <contour>
      <point x="919" y="946" type="curve"/>
      <point x="919" y="1565" type="line"/>
      <point x="1101" y="1565" type="line"/>
      <point x="1101" y="0" type="line"/>
      <point x="921" y="0" type="line"/>
      <point x="919" y="150" type="line"/>
      <point x="842" y="49"/>
      <point x="745" y="-25"/>
      <point x="576" y="-25" type="curve" smooth="yes"/>
      <point x="257" y="-25"/>
      <point x="118" y="248"/>
      <point x="118" y="568" type="curve" smooth="yes"/>
      <point x="118" y="879"/>
      <point x="268" y="1130"/>
      <point x="577" y="1130" type="curve" smooth="yes"/>
      <point x="753" y="1130"/>
      <point x="848" y="1056"/>
    </contour>
    <contour>
      <point x="919" y="555" type="curve" smooth="yes"/>
      <point x="919" y="796.667"/>
      <point x="847" y="990"/>
      <point x="598" y="990" type="curve" smooth="yes"/>
      <point x="360" y="990"/>
      <point x="301" y="778.804"/>
      <point x="301" y="555" type="curve" smooth="yes"/>
      <point x="301" y="340.776"/>
      <point x="368" y="115"/>
      <point x="598" y="115" type="curve" smooth="yes"/>
      <point x="839" y="115"/>
      <point x="919" y="318.723"/>
    </contour>
    <contour>
      <point x="615" y="549" type="move" name="center"/>
    </contour>
  </outline>
</glyph>
<glyph name="e" format="1">
  <advance width="1229"/>
  <unicode hex="0065"/>
  <outline>
    <contour>
      <point x="892" y="653" type="line"/>
      <point x="882" y="821"/>
      <point x="832" y="990"/>
      <point x="656" y="990" type="curve" smooth="yes"/>
      <point x="458" y="990"/>
      <point x="397" y="831"/>
      <point x="377" y="653" type="curve"/>
    </contour>
    <contour>
      <point x="666" y="-25" type="curve" smooth="yes"/>
      <point x="344" y="-25"/>
      <point x="187" y="233"/>
      <point x="187" y="555" type="curve" smooth="yes"/>
      <point x="187" y="877"/>
      <point x="346" y="1130"/>
      <point x="656" y="1130" type="curve" smooth="yes"/>
      <point x="946" y="1130"/>
      <point x="1066" y="872"/>
      <point x="1066" y="581" type="curve"/>
      <point x="1065" y="520" type="line"/>
      <point x="371" y="520" type="line"/>
      <point x="380" y="308"/>
      <point x="463" y="115"/>
      <point x="679" y="115" type="curve" smooth="yes"/>
      <point x="800" y="115"/>
      <point x="899" y="140"/>
      <point x="984" y="229" type="curve"/>
      <point x="1044" y="105" type="line"/>
      <point x="941" y="12"/>
      <point x="854" y="-25"/>
    </contour>
    <contour>
      <point x="637" y="1097" type="move" name="top"/>
    </contour>
    <contour>
      <point x="637" y="0" type="move" name="bottom"/>
    </contour>
    <contour>
      <point x="1128" y="10" type="move" name="ogonek"/>
    </contour>
  </outline>
</glyph>
<glyph name="f" format="1">
  <advance width="1229"/>
  <unicode hex="0066"/>
  <outline>
    <contour>
      <point x="942" y="1424" type="line" smooth="yes"/>
      <point x="753" y="1424"/>
      <point x="681" y="1389"/>
      <point x="681" y="1200" type="curve" smooth="yes"/>
      <point x="681" y="1097" type="line"/>
      <point x="1140" y="1097" type="line"/>
      <point x="1140" y="957" type="line"/>
      <point x="681" y="957" type="line"/>
      <point x="681" y="140" type="line"/>
      <point x="1036" y="140" type="line"/>
      <point x="1036" y="0" type="line"/>
      <point x="180" y="0" type="line"/>
      <point x="180" y="140" type="line"/>
      <point x="499" y="140" type="line"/>
      <point x="499" y="957" type="line"/>
      <point x="156" y="957" type="line"/>
      <point x="156" y="1097" type="line"/>
      <point x="499" y="1097" type="line"/>
      <point x="499" y="1433"/>
      <point x="542" y="1585"/>
      <point x="966" y="1585" type="curve" smooth="yes"/>
      <point x="1140" y="1585" type="line"/>
      <point x="1140" y="1424" type="line"/>
    </contour>
  </outline>
</glyph>
<glyph name="g" format="1">
  <advance width="1229"/>
  <unicode hex="0067"/>
  <outline>
    <contour>
      <point x="599" y="990" type="curve" smooth="yes"/>
      <point x="364" y="990"/>
      <point x="301" y="788.377"/>
      <point x="301" y="550" type="curve" smooth="yes"/>
      <point x="301" y="360"/>
      <point x="380" y="162"/>
      <point x="591" y="162" type="curve" smooth="yes"/>
      <point x="825" y="162"/>
      <point x="898" y="361"/>
      <point x="898" y="556" type="curve" smooth="yes"/>
      <point x="898" y="784.034"/>
      <point x="835" y="990"/>
    </contour>
    <contour>
      <point x="898" y="210" type="line"/>
      <point x="856" y="103"/>
      <point x="729" y="0"/>
      <point x="575" y="0" type="curve" smooth="yes"/>
      <point x="268" y="0"/>
      <point x="118" y="253"/>
      <point x="118" y="556" type="curve" smooth="yes"/>
      <point x="118" y="880"/>
      <point x="266" y="1130"/>
      <point x="579" y="1130" type="curve" smooth="yes"/>
      <point x="724" y="1130"/>
      <point x="829" y="1061"/>
      <point x="898" y="948" type="curve"/>
      <point x="904" y="1097" type="line"/>
      <point x="1089" y="1097" type="line"/>
      <point x="1081" y="879"/>
      <point x="1080" y="670"/>
      <point x="1080" y="446" type="curve" smooth="yes"/>
      <point x="1080" y="152" type="line" smooth="yes"/>
      <point x="1080" y="-317"/>
      <point x="903.5" y="-461"/>
      <point x="317" y="-461" type="curve"/>
      <point x="317" y="-321" type="line"/>
      <point x="739.5" y="-321"/>
      <point x="898" y="-249.495"/>
      <point x="898" y="137" type="curve" smooth="yes"/>
    </contour>
    <contour>
      <point x="615" y="1097" type="move" name="top"/>
    </contour>
  </outline>
</glyph>
<glyph name="h" format="1">
  <advance width="1229"/>
  <unicode hex="0068"/>
  <outline>
    <contour>
      <point x="680" y="1130" type="curve" smooth="yes"/>
      <point x="930" y="1130"/>
      <point x="1022" y="937"/>
      <point x="1022" y="662" type="curve" smooth="yes"/>
      <point x="1022" y="0" type="line"/>
      <point x="840" y="0" type="line"/>
      <point x="840" y="639" type="line" smooth="yes"/>
      <point x="840" y="823.846"/>
      <point x="816" y="990"/>
      <point x="636" y="990" type="curve" smooth="yes"/>
      <point x="458" y="990"/>
      <point x="342" y="806.729"/>
      <point x="342" y="733" type="curve" smooth="yes"/>
      <point x="342" y="0" type="line"/>
      <point x="160" y="0" type="line"/>
      <point x="160" y="1565" type="line"/>
      <point x="342" y="1565" type="line"/>
      <point x="342" y="951" type="line"/>
      <point x="417" y="1050"/>
      <point x="496" y="1130"/>
    </contour>
    <contour>
      <point x="615" y="1097" type="move" name="top"/>
    </contour>
    <contour>
      <point x="615" y="549" type="move" name="center"/>
    </contour>
  </outline>
</glyph>
<glyph name="i" format="1">
  <advance width="1229"/>
  <unicode hex="0069"/>
  <outline>
    <contour>
      <point x="276" y="957" type="line"/>
      <point x="276" y="1097" type="line"/>
      <point x="793" y="1097" type="line"/>
      <point x="793" y="140" type="line"/>
      <point x="1107" y="140" type="line"/>
      <point x="1107" y="0" type="line"/>
      <point x="276" y="0" type="line"/>
      <point x="276" y="140" type="line"/>
      <point x="611" y="140" type="line"/>
      <point x="611" y="957" type="line"/>
    </contour>
    <contour>
      <point x="581" y="1386" type="curve" smooth="yes"/>
      <point x="581" y="1485" type="line" smooth="yes"/>
      <point x="581" y="1535"/>
      <point x="652" y="1576"/>
      <point x="702" y="1576" type="curve" smooth="yes"/>
      <point x="752" y="1576"/>
      <point x="823" y="1535"/>
      <point x="823" y="1485" type="curve" smooth="yes"/>
      <point x="823" y="1386" type="line" smooth="yes"/>
      <point x="823" y="1336"/>
      <point x="752" y="1295"/>
      <point x="702" y="1295" type="curve" smooth="yes"/>
      <point x="652" y="1295"/>
      <point x="581" y="1336"/>
    </contour>
  </outline>
</glyph>
<glyph name="j" format="1">
  <advance width="1229"/>
  <unicode hex="006A"/>
  <outline>
    <contour>
      <point x="644" y="1386" type="curve" smooth="yes"/>
      <point x="644" y="1485" type="line" smooth="yes"/>
      <point x="644" y="1535"/>
      <point x="715" y="1576"/>
      <point x="765" y="1576" type="curve" smooth="yes"/>
      <point x="815" y="1576"/>
      <point x="886" y="1535"/>
      <point x="886" y="1485" type="curve" smooth="yes"/>
      <point x="886" y="1386" type="line" smooth="yes"/>
      <point x="886" y="1336"/>
      <point x="815" y="1295"/>
      <point x="765" y="1295" type="curve" smooth="yes"/>
      <point x="715" y="1295"/>
      <point x="644" y="1336"/>
    </contour>
    <contour>
      <point x="465" y="-220" type="line" smooth="yes"/>
      <point x="651" y="-220"/>
      <point x="676" y="-176"/>
      <point x="676" y="71" type="curve" smooth="yes"/>
      <point x="676" y="957" type="line"/>
      <point x="272" y="957" type="line"/>
      <point x="272" y="1097" type="line"/>
      <point x="858" y="1097" type="line"/>
      <point x="858" y="127" type="line" smooth="yes"/>
      <point x="858" y="-199"/>
      <point x="841" y="-360"/>
      <point x="466" y="-360" type="curve" smooth="yes"/>
      <point x="190" y="-360" type="line"/>
      <point x="190" y="-220" type="line"/>
    </contour>
  </outline>
</glyph>
<glyph name="k" format="1">
  <advance width="1229"/>
  <unicode hex="006B"/>
  <outline>
    <contour>
      <point x="404" y="648" type="line"/>
      <point x="907" y="1097" type="line"/>
      <point x="1147" y="1097" type="line"/>
      <point x="646" y="641" type="line"/>
      <point x="1208" y="0" type="line"/>
      <point x="980" y="0" type="line"/>
      <point x="516" y="546" type="line"/>
      <point x="404" y="451" type="line"/>
      <point x="404" y="0" type="line"/>
      <point x="222" y="0" type="line"/>
      <point x="222" y="1565" type="line"/>
      <point x="404" y="1565" type="line"/>
    </contour>
    <contour>
      <point x="637" y="0" type="move" name="bottom"/>
    </contour>
  </outline>
</glyph>
<glyph name="l" format="1">
  <advance width="1229"/>
  <unicode hex="006C"/>
  <outline>
    <contour>
      <point x="172" y="1425" type="line"/>
      <point x="172" y="1565" type="line"/>
      <point x="738" y="1565" type="line"/>
      <point x="738" y="140" type="line"/>
      <point x="1123" y="140" type="line"/>
      <point x="1123" y="0" type="line"/>
      <point x="172" y="0" type="line"/>
      <point x="172" y="140" type="line"/>
      <point x="556" y="140" type="line"/>
      <point x="556" y="1425" type="line"/>
    </contour>
    <contour>
      <point x="582" y="1097" type="move" name="top"/>
    </contour>
    <contour>
      <point x="582" y="0" type="move" name="bottom"/>
    </contour>
    <contour>
      <point x="1176" y="1097" type="move" name="topright"/>
    </contour>
  </outline>
</glyph>
<glyph name="m" format="1">
  <advance width="1229"/>
  <unicode hex="006D"/>
  <outline>
    <contour>
      <point x="862" y="990" type="curve" smooth="yes"/>
      <point x="708" y="990"/>
      <point x="708" y="801"/>
      <point x="708" y="680" type="curve" smooth="yes"/>
      <point x="708" y="0" type="line"/>
      <point x="555" y="0" type="line"/>
      <point x="555" y="669" type="line" smooth="yes"/>
      <point x="555" y="802"/>
      <point x="552" y="990"/>
      <point x="428" y="990" type="curve" smooth="yes"/>
      <point x="316" y="990"/>
      <point x="272" y="836"/>
      <point x="272" y="721" type="curve" smooth="yes"/>
      <point x="272" y="0" type="line"/>
      <point x="105" y="0" type="line"/>
      <point x="105" y="1097" type="line"/>
      <point x="250" y="1097" type="line"/>
      <point x="261" y="952" type="line"/>
      <point x="293" y="1036"/>
      <point x="357" y="1130"/>
      <point x="467" y="1130" type="curve" smooth="yes"/>
      <point x="572" y="1130"/>
      <point x="645" y="1065"/>
      <point x="673" y="960" type="curve"/>
      <point x="716" y="1070"/>
      <point x="785" y="1130"/>
      <point x="904" y="1130" type="curve" smooth="yes"/>
      <point x="1112" y="1130"/>
      <point x="1145" y="914"/>
      <point x="1145" y="703" type="curve" smooth="yes"/>
      <point x="1145" y="0" type="line"/>
      <point x="978" y="0" type="line"/>
      <point x="978" y="682" type="line" smooth="yes"/>
      <point x="978" y="824"/>
      <point x="978" y="990"/>
    </contour>
  </outline>
</glyph>
<glyph name="n" format="1">
  <advance width="1229"/>
  <unicode hex="006E"/>
  <outline>
    <contour>
      <point x="725" y="1130" type="curve" smooth="yes"/>
      <point x="978" y="1130"/>
      <point x="1066" y="955"/>
      <point x="1066" y="698" type="curve" smooth="yes"/>
      <point x="1066" y="0" type="line"/>
      <point x="884" y="0" type="line"/>
      <point x="884" y="640" type="line" smooth="yes"/>
      <point x="884" y="817"/>
      <point x="890" y="990"/>
      <point x="661" y="990" type="curve" smooth="yes"/>
      <point x="523" y="990"/>
      <point x="380" y="888"/>
      <point x="380" y="732" type="curve" smooth="yes"/>
      <point x="380" y="0" type="line"/>
      <point x="198" y="0" type="line"/>
      <point x="198" y="1097" type="line"/>
      <point x="365" y="1097" type="line"/>
      <point x="375" y="958" type="line"/>
      <point x="438" y="1046"/>
      <point x="558" y="1130"/>
    </contour>
    <contour>
      <point x="610" y="1097" type="move" name="top"/>
    </contour>
    <contour>
      <point x="610" y="0" type="move" name="bottom"/>
    </contour>
  </outline>
</glyph>
<glyph name="o" format="1">
  <advance width="1229"/>
  <unicode hex="006F"/>
  <outline>
    <contour>
      <point x="612" y="1130" type="curve" smooth="yes"/>
      <point x="941" y="1130"/>
      <point x="1110" y="883"/>
      <point x="1110" y="558" type="curve" smooth="yes"/>
      <point x="1110" y="210"/>
      <point x="910" y="-25"/>
      <point x="612" y="-25" type="curve" smooth="yes"/>
      <point x="289" y="-25"/>
      <point x="118" y="232"/>
      <point x="118" y="551" type="curve" smooth="yes"/>
      <point x="118" y="897"/>
      <point x="316" y="1130"/>
    </contour>
    <contour>
      <point x="302" y="550" type="curve" smooth="yes"/>
      <point x="302" y="336.437"/>
      <point x="384" y="115"/>
      <point x="612" y="115" type="curve" smooth="yes"/>
      <point x="847" y="115"/>
      <point x="928" y="335.476"/>
      <point x="928" y="553" type="curve" smooth="yes"/>
      <point x="928" y="769.532"/>
      <point x="848" y="990"/>
      <point x="612" y="990" type="curve" smooth="yes"/>
      <point x="384" y="990"/>
      <point x="302" y="763.602"/>
    </contour>
    <contour>
      <point x="615" y="1097" type="move" name="top"/>
    </contour>
  </outline>
</glyph>
<glyph name="p" format="1">
  <advance width="1229"/>
  <unicode hex="0070"/>
  <outline>
    <contour>
      <point x="310" y="946" type="line"/>
      <point x="381" y="1056"/>
      <point x="476" y="1130"/>
      <point x="652" y="1130" type="curve" smooth="yes"/>
      <point x="961" y="1130"/>
      <point x="1111" y="879"/>
      <point x="1111" y="568" type="curve" smooth="yes"/>
      <point x="1111" y="248"/>
      <point x="972" y="-25"/>
      <point x="653" y="-25" type="curve" smooth="yes"/>
      <point x="484" y="-25"/>
      <point x="387" y="49"/>
      <point x="310" y="150" type="curve"/>
      <point x="308" y="-441" type="line"/>
      <point x="128" y="-441" type="line"/>
      <point x="128" y="1097" type="line"/>
      <point x="310" y="1097" type="line"/>
    </contour>
    <contour>
      <point x="310" y="555" type="curve" smooth="yes"/>
      <point x="310" y="319"/>
      <point x="390" y="115"/>
      <point x="631" y="115" type="curve" smooth="yes"/>
      <point x="861" y="115"/>
      <point x="928" y="341"/>
      <point x="928" y="555" type="curve" smooth="yes"/>
      <point x="928" y="779"/>
      <point x="869" y="990"/>
      <point x="631" y="990" type="curve" smooth="yes"/>
      <point x="382" y="990"/>
      <point x="310" y="797"/>
    </contour>
  </outline>
</glyph>
<glyph name="r" format="1">
  <advance width="1229"/>
  <unicode hex="0072"/>
  <outline>
    <contour>
      <point x="1026" y="961" type="line" smooth="yes"/>
      <point x="802" y="961"/>
      <point x="662" y="853"/>
      <point x="662" y="610" type="curve" smooth="yes"/>
      <point x="662" y="140" type="line"/>
      <point x="1051" y="140" type="line"/>
      <point x="1051" y="0" type="line"/>
      <point x="140" y="0" type="line"/>
      <point x="140" y="140" type="line"/>
      <point x="480" y="140" type="line"/>
      <point x="480" y="957" type="line"/>
      <point x="256" y="957" type="line"/>
      <point x="256" y="1097" type="line"/>
      <point x="629" y="1097" type="line"/>
      <point x="644" y="894" type="line"/>
      <point x="735" y="1051"/>
      <point x="871" y="1130"/>
      <point x="1052" y="1130" type="curve" smooth="yes"/>
      <point x="1189" y="1130" type="line"/>
      <point x="1189" y="961" type="line"/>
    </contour>
    <contour>
      <point x="615" y="1097" type="move" name="top"/>
    </contour>
    <contour>
      <point x="615" y="0" type="move" name="bottom"/>
    </contour>
  </outline>
</glyph>
<glyph name="s" format="1">
  <advance width="1229"/>
  <unicode hex="0073"/>
  <outline>
    <contour>
      <point x="631" y="-25" type="curve" smooth="yes"/>
      <point x="645" y="-25" type="line"/>
      <point x="856" y="-23"/>
      <point x="1024" y="87"/>
      <point x="1024" y="294" type="curve" smooth="yes"/>
      <point x="1024" y="299" type="line"/>
      <point x="1022" y="484"/>
      <point x="941" y="577"/>
      <point x="754" y="623" type="curve" smooth="yes"/>
      <point x="563" y="670" type="line" smooth="yes"/>
      <point x="443" y="699"/>
      <point x="420" y="747"/>
      <point x="419" y="815" type="curve"/>
      <point x="419" y="817" type="line" smooth="yes"/>
      <point x="419" y="930"/>
      <point x="508" y="988"/>
      <point x="627" y="989" type="curve"/>
      <point x="632" y="989" type="line" smooth="yes"/>
      <point x="751" y="989"/>
      <point x="868" y="952"/>
      <point x="927" y="927" type="curve"/>
      <point x="967" y="1055" type="line"/>
      <point x="885" y="1099"/>
      <point x="766" y="1130"/>
      <point x="628" y="1130" type="curve" smooth="yes"/>
      <point x="615" y="1130" type="line"/>
      <point x="375" y="1128"/>
      <point x="253" y="972"/>
      <point x="253" y="818" type="curve" smooth="yes"/>
      <point x="253" y="816" type="line"/>
      <point x="255" y="680"/>
      <point x="298" y="569"/>
      <point x="520" y="515" type="curve" smooth="yes"/>
      <point x="706" y="470" type="line" smooth="yes"/>
      <point x="838" y="438"/>
      <point x="858" y="371"/>
      <point x="859" y="301" type="curve"/>
      <point x="859" y="299" type="line" smooth="yes"/>
      <point x="859" y="182"/>
      <point x="765" y="127"/>
      <point x="620" y="126" type="curve"/>
      <point x="615" y="126" type="line" smooth="yes"/>
      <point x="463" y="126"/>
      <point x="335" y="176"/>
      <point x="294" y="202" type="curve"/>
      <point x="250" y="74" type="line"/>
      <point x="317" y="24"/>
      <point x="467" y="-25"/>
    </contour>
    <contour>
      <point x="604" y="1097" type="move" name="top"/>
    </contour>
    <contour>
      <point x="604" y="0" type="move" name="bottom"/>
    </contour>
  </outline>
</glyph>
<glyph name="t" format="1">
  <advance width="1229"/>
  <unicode hex="0074"/>
  <outline>
    <contour>
      <point x="581" y="957" type="line"/>
      <point x="581" y="442" type="line" smooth="yes"/>
      <point x="581" y="195"/>
      <point x="600" y="140"/>
      <point x="821" y="140" type="curve" smooth="yes"/>
      <point x="982" y="140" type="line"/>
      <point x="972" y="0" type="line"/>
      <point x="828" y="0" type="line" smooth="yes"/>
      <point x="435" y="0"/>
      <point x="399" y="118"/>
      <point x="399" y="488" type="curve" smooth="yes"/>
      <point x="399" y="957" type="line"/>
      <point x="109" y="957" type="line"/>
      <point x="109" y="1097" type="line"/>
      <point x="399" y="1097" type="line"/>
      <point x="399" y="1475" type="line"/>
      <point x="581" y="1529" type="line"/>
      <point x="581" y="1097" type="line"/>
      <point x="982" y="1097" type="line"/>
      <point x="982" y="957" type="line"/>
    </contour>
    <contour>
      <point x="515" y="0" type="move" name="bottom"/>
    </contour>
    <contour>
      <point x="515" y="549" type="move" name="center"/>
    </contour>
  </outline>
</glyph>
<glyph name="u" format="1">
  <advance width="1229"/>
  <unicode hex="0075"/>
  <outline>
    <contour>
      <point x="614" y="-25" type="curve" smooth="yes"/>
      <point x="348" y="-25"/>
      <point x="190" y="139"/>
      <point x="190" y="404" type="curve" smooth="yes"/>
      <point x="190" y="1097" type="line"/>
      <point x="372" y="1097" type="line"/>
      <point x="372" y="388" type="line" smooth="yes"/>
      <point x="372" y="230.917"/>
      <point x="447" y="115"/>
      <point x="614" y="115" type="curve" smooth="yes"/>
      <point x="781" y="115"/>
      <point x="856" y="230.917"/>
      <point x="856" y="388" type="curve" smooth="yes"/>
      <point x="856" y="1097" type="line"/>
      <point x="1038" y="1097" type="line"/>
      <point x="1038" y="404" type="line" smooth="yes"/>
      <point x="1038" y="139"/>
      <point x="880" y="-25"/>
    </contour>
    <contour>
      <point x="615" y="1097" type="move" name="top"/>
    </contour>
    <contour>
      <point x="1106" y="10" type="move" name="ogonek"/>
    </contour>
  </outline>
</glyph>
<glyph name="v" format="1">
  <advance width="1229"/>
  <unicode hex="0076"/>
  <outline>
    <contour>
      <point x="618" y="189" type="line"/>
      <point x="731" y="496"/>
      <point x="831" y="787"/>
      <point x="939" y="1097" type="curve"/>
      <point x="1141" y="1097" type="line"/>
      <point x="714" y="0" type="line"/>
      <point x="511" y="0" type="line"/>
      <point x="87" y="1097" type="line"/>
      <point x="297" y="1097" type="line"/>
    </contour>
  </outline>
</glyph>
<glyph name="w" format="1">
  <advance width="1229"/>
  <unicode hex="0077"/>
  <outline>
    <contour>
      <point x="432" y="0" type="line"/>
      <point x="246" y="0" type="line"/>
      <point x="24" y="1097" type="line"/>
      <point x="207" y="1097" type="line"/>
      <point x="346" y="220" type="line"/>
      <point x="521" y="1097" type="line"/>
      <point x="738" y="1097" type="line"/>
      <point x="897" y="223" type="line"/>
      <point x="1032" y="1097" type="line"/>
      <point x="1204" y="1097" type="line"/>
      <point x="983" y="0" type="line"/>
      <point x="791" y="0" type="line"/>
      <point x="628" y="883" type="line"/>
    </contour>
    <contour>
      <point x="615" y="1097" type="move" name="top"/>
    </contour>
  </outline>
</glyph>
<glyph name="y" format="1">
  <advance width="1229"/>
  <unicode hex="0079"/>
  <outline>
    <contour>
      <point x="652" y="205" type="line"/>
      <point x="983" y="1097" type="line"/>
      <point x="1184" y="1097" type="line"/>
      <point x="1184" y="1097"/>
      <point x="843" y="254"/>
      <point x="753" y="16" type="curve"/>
      <point x="753" y="17" type="line"/>
      <point x="743" y="-4"/>
      <point x="737" y="-34"/>
      <point x="730" y="-58" type="curve" smooth="yes"/>
      <point x="658" y="-312"/>
      <point x="446" y="-394"/>
      <point x="160" y="-423" type="curve"/>
      <point x="160" y="-267" type="line"/>
      <point x="371" y="-245"/>
      <point x="537" y="-207"/>
      <point x="549" y="24" type="curve"/>
      <point x="237" y="741"/>
      <point x="94" y="1097"/>
      <point x="94" y="1097" type="curve"/>
      <point x="312" y="1097" type="line"/>
    </contour>
    <contour>
      <point x="615" y="1097" type="move" name="top"/>
    </contour>
  </outline>
</glyph>
<glyph name="z" format="1">
  <advance width="1229"/>
  <unicode hex="007A"/>
  <outline>
    <contour>
      <point x="213" y="1097" type="line"/>
      <point x="980" y="1097" type="line"/>
      <point x="980" y="959" type="line"/>
      <point x="402" y="140.167" type="line"/>
      <point x="1017" y="140.167" type="line"/>
      <point x="1017" y="0" type="line"/>
      <point x="193" y="0" type="line"/>
      <point x="193" y="142" type="line"/>
      <point x="752" y="957" type="line"/>
      <point x="213" y="957" type="line"/>
    </contour>
    <contour>
      <point x="615" y="1097" type="move" name="top"/>
    </contour>
  </outline>
</glyph>
<glyph name="braceright" format="1">
  <advance width="1229"/>
  <unicode hex="007D"/>
  <outline>
    <contour>
      <point x="815" y="1097" type="line" smooth="yes"/>
      <point x="815" y="933"/>
      <point x="943" y="854"/>
      <point x="1104" y="844" type="curve"/>
      <point x="1104" y="709" type="line"/>
      <point x="943" y="699"/>
      <point x="815" y="619"/>
      <point x="815" y="455" type="curve" smooth="yes"/>
      <point x="815" y="223" type="line" smooth="yes"/>
      <point x="815" y="-35"/>
      <point x="720" y="-154"/>
      <point x="456" y="-153" type="curve" smooth="yes"/>
      <point x="227" y="-152" type="line"/>
      <point x="227" y="-17" type="line"/>
      <point x="456" y="-17" type="line" smooth="yes"/>
      <point x="586" y="-17"/>
      <point x="593" y="93"/>
      <point x="593" y="223" type="curve" smooth="yes"/>
      <point x="593" y="464" type="line" smooth="yes"/>
      <point x="593" y="663"/>
      <point x="689" y="718"/>
      <point x="838" y="776" type="curve"/>
      <point x="689" y="834"/>
      <point x="593" y="890"/>
      <point x="593" y="1089" type="curve" smooth="yes"/>
      <point x="593" y="1330" type="line" smooth="yes"/>
      <point x="593" y="1460"/>
      <point x="586" y="1569"/>
      <point x="456" y="1569" type="curve" smooth="yes"/>
      <point x="227" y="1569" type="line"/>
      <point x="227" y="1705" type="line"/>
      <point x="456" y="1706" type="line" smooth="yes"/>
      <point x="720" y="1707"/>
      <point x="815" y="1588"/>
      <point x="815" y="1330" type="curve" smooth="yes"/>
    </contour>
  </outline>
</glyph>
<glyph name="sterling" format="1">
  <advance width="1229"/>
  <unicode hex="00A3"/>
  <outline>
    <contour>
      <point x="806" y="1418" type="curve" smooth="yes"/>
      <point x="578" y="1418"/>
      <point x="504" y="1253"/>
      <point x="504" y="1028" type="curve"/>
      <point x="508" y="903" type="line"/>
      <point x="874" y="903" type="line"/>
      <point x="874" y="749" type="line"/>
      <point x="511" y="749" type="line"/>
      <point x="511" y="703"/>
      <point x="512" y="654"/>
      <point x="512" y="605" type="curve" smooth="yes"/>
      <point x="512" y="421"/>
      <point x="501" y="231"/>
      <point x="401" y="153" type="curve"/>
      <point x="1188" y="153" type="line"/>
      <point x="1188" y="0" type="line"/>
      <point x="120" y="0" type="line"/>
      <point x="119" y="150" type="line"/>
      <point x="236" y="215"/>
      <point x="321" y="300"/>
      <point x="321" y="478" type="curve" smooth="yes"/>
      <point x="321" y="749" type="line"/>
      <point x="119" y="749" type="line"/>
      <point x="119" y="903" type="line"/>
      <point x="320" y="903" type="line"/>
      <point x="315" y="945"/>
      <point x="313" y="986"/>
      <point x="313" y="1026" type="curve" smooth="yes"/>
      <point x="313" y="1344"/>
      <point x="470" y="1572"/>
      <point x="804" y="1572" type="curve" smooth="yes"/>
      <point x="956" y="1572"/>
      <point x="1082" y="1541"/>
      <point x="1168" y="1473" type="curve"/>
      <point x="1110" y="1343" type="line"/>
      <point x="1030" y="1392"/>
      <point x="926" y="1418"/>
    </contour>
  </outline>
</glyph>
<glyph name="AE" format="1">
  <advance width="1229"/>
  <unicode hex="00C6"/>
  <outline>
    <contour>
      <point x="2073" y="1581" type="line"/>
      <point x="2073" y="1420" type="line"/>
      <point x="1277" y="1420" type="line"/>
      <point x="1318" y="890" type="line"/>
      <point x="2027" y="890" type="line"/>
      <point x="2027" y="729" type="line"/>
      <point x="1340" y="729" type="line"/>
      <point x="1385" y="160" type="line"/>
      <point x="2098" y="160" type="line"/>
      <point x="2098" y="0" type="line"/>
      <point x="1217" y="0" type="line"/>
      <point x="1181" y="432" type="line"/>
      <point x="467" y="432" type="line"/>
      <point x="216" y="0" type="line"/>
      <point x="0" y="0" type="line"/>
      <point x="919" y="1581" type="line"/>
    </contour>
    <contour>
      <point x="555" y="592" type="line"/>
      <point x="1160" y="592" type="line"/>
      <point x="1094" y="1420" type="line"/>
      <point x="1040" y="1420" type="line"/>
    </contour>
    <contour>
      <point x="615" y="1491" type="move" name="top"/>
    </contour>
  </outline>
</glyph>
<glyph name="Oslash" format="1">
  <advance width="1229"/>
  <unicode hex="00D8"/>
  <outline>
    <contour>
      <point x="281" y="-222" type="line"/>
      <point x="146" y="-171" type="line"/>
      <point x="955" y="1717" type="line"/>
      <point x="1095" y="1675" type="line"/>
    </contour>
    <contour>
      <point x="614" y="-25" type="curve" smooth="yes"/>
      <point x="275" y="-25"/>
      <point x="123" y="337"/>
      <point x="123" y="747" type="curve" smooth="yes"/>
      <point x="123" y="1124"/>
      <point x="242" y="1516"/>
      <point x="614" y="1516" type="curve" smooth="yes"/>
      <point x="986" y="1516"/>
      <point x="1105" y="1124"/>
      <point x="1105" y="747" type="curve" smooth="yes"/>
      <point x="1105" y="337"/>
      <point x="953" y="-25"/>
    </contour>
    <contour>
      <point x="614" y="1356" type="curve" smooth="yes"/>
      <point x="417" y="1356"/>
      <point x="319" y="1091"/>
      <point x="319" y="746" type="curve" smooth="yes"/>
      <point x="319" y="401"/>
      <point x="418" y="136"/>
      <point x="614" y="136" type="curve" smooth="yes"/>
      <point x="810" y="136"/>
      <point x="909" y="401"/>
      <point x="909" y="746" type="curve" smooth="yes"/>
      <point x="909" y="1091"/>
      <point x="811" y="1356"/>
    </contour>
    <contour>
      <point x="615" y="1491" type="move" name="top"/>
    </contour>
  </outline>
</glyph>
<glyph name="hbar" format="1">
  <advance width="1229"/>
  <unicode hex="0127"/>
  <outline>
    <contour>
      <point x="986" y="645" type="line" smooth="yes"/>
      <point x="986" y="829"/>
      <point x="939" y="970"/>
      <point x="753" y="970" type="curve" smooth="yes"/>
      <point x="587" y="970"/>
      <point x="400" y="824"/>
      <point x="400" y="725" type="curve" smooth="yes"/>
      <point x="400" y="0" type="line"/>
      <point x="187" y="0" type="line"/>
      <point x="187" y="1284" type="line"/>
      <point x="4" y="1284" type="line"/>
      <point x="4" y="1430" type="line"/>
      <point x="187" y="1430" type="line"/>
      <point x="187" y="1614" type="line"/>
      <point x="400" y="1614" type="line"/>
      <point x="400" y="1430" type="line"/>
      <point x="638" y="1430" type="line"/>
      <point x="638" y="1284" type="line"/>
      <point x="400" y="1284" type="line"/>
      <point x="400" y="951" type="line"/>
      <point x="482" y="1062"/>
      <point x="608" y="1134"/>
      <point x="789" y="1134" type="curve" smooth="yes"/>
      <point x="1078" y="1134"/>
      <point x="1197" y="948"/>
      <point x="1197" y="662" type="curve" smooth="yes"/>
      <point x="1197" y="0" type="line"/>
      <point x="986" y="0" type="line"/>
    </contour>
  </outline>
</glyph>
<glyph name="uni0326" format="1">
  <advance width="1229"/>
  <unicode hex="0326"/>
  <outline>
    <contour>
      <point x="777" y="-176" type="line"/>
      <point x="596" y="-678" type="line"/>
      <point x="451" y="-678" type="line"/>
      <point x="569" y="-176" type="line"/>
    </contour>
  </outline>
</glyph>
<glyph name="mu" format="1">
  <advance width="1229"/>
  <unicode hex="03BC"/>
  <outline>
    <contour>
      <point x="362" y="433" type="line" smooth="yes"/>
      <point x="362" y="234"/>
      <point x="446" y="118"/>
      <point x="647" y="118" type="curve" smooth="yes"/>
      <point x="854" y="118"/>
      <point x="978" y="268"/>
      <point x="978" y="473" type="curve" smooth="yes"/>
      <point x="978" y="1114" type="line"/>
      <point x="1161" y="1114" type="line"/>
      <point x="1161" y="896"/>
      <point x="1154" y="675"/>
      <point x="1154" y="456" type="curve" smooth="yes"/>
      <point x="1154" y="301"/>
      <point x="1158" y="148"/>
      <point x="1169" y="0" type="curve"/>
      <point x="982" y="0" type="line"/>
      <point x="978" y="146" type="line"/>
      <point x="898" y="41"/>
      <point x="777" y="-25"/>
      <point x="604" y="-25" type="curve" smooth="yes"/>
      <point x="509" y="-25"/>
      <point x="426" y="-4"/>
      <point x="362" y="34" type="curve"/>
      <point x="362" y="-219" type="line"/>
      <point x="180" y="-219" type="line"/>
      <point x="180" y="1114" type="line"/>
      <point x="362" y="1114" type="line"/>
    </contour>
  </outline>
</glyph>
<glyph name="uniF6C3" format="1">
  <advance width="1229"/>
  <unicode hex="F6C3"/>
  <outline>
    <contour>
      <point x="810" y="-152" type="line"/>
      <point x="629" y="-655" type="line"/>
      <point x="483" y="-655" type="line"/>
      <point x="602" y="-152" type="line"/>
    </contour>
  </outline>
</glyph>
